<svg width="18" height="23" viewBox="0 0 18 23" fill="none" xmlns="http://www.w3.org/2000/svg">
<g filter="url(#filter0_d)">
<path d="M12.5 0H5.5C4.67285 0 4 0.628103 4 1.40025V13.5357C4 14.3079 4.67285 14.936 5.5 14.936H12.5C13.3272 14.936 14 14.3079 14 13.5357V1.40025C14 0.628103 13.3272 0 12.5 0ZM5.5 0.933498H12.5C12.7759 0.933498 13 1.14271 13 1.40025V11.202H5V1.40025C5 1.14271 5.22412 0.933498 5.5 0.933498ZM12.5 14.0025H5.5C5.22412 14.0025 5 13.7933 5 13.5357V12.1355H13V13.5357C13 13.7933 12.7759 14.0025 12.5 14.0025Z" fill="#757575"/>
<path d="M6.35355 12.7389C6.54882 12.9213 6.54882 13.2169 6.35355 13.3992C6.15828 13.5816 5.84172 13.5816 5.64645 13.3992C5.45118 13.2169 5.45118 12.9213 5.64645 12.7389C5.84172 12.5566 6.15828 12.5566 6.35355 12.7389Z" fill="#757575"/>
</g>
<defs>
<filter id="filter0_d" x="0" y="0" width="18" height="22.936" filterUnits="userSpaceOnUse" color-interpolation-filters="sRGB">
<feFlood flood-opacity="0" result="BackgroundImageFix"/>
<feColorMatrix in="SourceAlpha" type="matrix" values="0 0 0 0 0 0 0 0 0 0 0 0 0 0 0 0 0 0 127 0"/>
<feOffset dy="4"/>
<feGaussianBlur stdDeviation="2"/>
<feColorMatrix type="matrix" values="0 0 0 0 0 0 0 0 0 0 0 0 0 0 0 0 0 0 0.25 0"/>
<feBlend mode="normal" in2="BackgroundImageFix" result="effect1_dropShadow"/>
<feBlend mode="normal" in="SourceGraphic" in2="effect1_dropShadow" result="shape"/>
</filter>
</defs>
</svg>
